<svg xmlns="http://www.w3.org/2000/svg" fill="#e31337" width="220" height="190" viewBox="0 0 220 190">
    <path d="M157.273 107.264c.726 0 1.18.787.816 1.417l-46.75 80.848a.943.943 0 0 1-.817.471H81.944a.944.944 0 0 1-.816-1.417l46.75-80.848a.943.943 0 0 1 .817-.471zM129.478 84.09a.943.943 0 0 1-.816-.47L81.128 1.416A.944.944 0 0 1 81.944 0h28.578c.337 0 .648.18.816.471l47.534 82.202a.944.944 0 0 1-.816 1.417z" />
    <path d="M135.128 1.416a.944.944 0 0 1 .82-1.416h28.618c.338 0 .65.18.819.472l54.488 94.056c.17.292.17.652 0 .944l-54.488 94.056a.946.946 0 0 1-.82.472h-28.618a.944.944 0 0 1-.819-1.416L189.343 95ZM111.87 94.524a.937.937 0 0 1 .002.948l-54.747 94.056a.955.955 0 0 1-1.645.004L.13 95.476a.937.937 0 0 1-.002-.948L54.875.472A.955.955 0 0 1 56.52.468z" />
    <style>
        @media (prefers-color-scheme: dark) {
            svg { fill: #ffffff; }
        }
        @media (prefers-color-scheme: light) {
            svg { fill: #e31337; }
        }
    </style>
</svg>